<svg width="361" height="296" viewBox="0 0 361 296" fill="none" xmlns="http://www.w3.org/2000/svg">
<path d="M95.3979 128.068C113.048 128.068 129.028 120.906 140.715 109.329C152.283 97.6322 159.439 81.6387 159.439 63.9742C159.439 28.6452 130.698 0 95.3979 0H19.193L53.5389 128.068H95.3979Z" fill="#040303"/>
<path d="M130.586 142.151H0V160.89H34.2266L63.5637 270.219H130.586C148.355 270.219 164.216 263.058 175.784 251.48C187.352 239.903 194.507 223.909 194.507 206.245C194.507 170.916 165.886 142.151 130.586 142.151Z" fill="#040303"/>
<path d="M265.702 167.932C248.052 167.932 232.072 175.094 220.385 186.671C208.817 198.368 201.661 214.361 201.661 232.026C201.661 267.355 230.402 296 265.702 296H341.907L307.561 167.932H265.702Z" fill="#040303"/>
<path d="M326.773 135.109L297.436 25.7803H230.414C212.645 25.7803 196.784 32.9416 185.216 44.519C173.648 56.0964 166.493 72.09 166.493 89.7545C166.493 125.084 195.114 153.848 230.414 153.848H361V135.109H326.773Z" fill="#040303"/>
</svg>
