<svg width="168" height="134" viewBox="0 0 168 134" fill="none" xmlns="http://www.w3.org/2000/svg">
<path d="M44.3957 57.9731C52.6096 57.9731 60.0464 54.7314 65.4853 49.4905C70.8687 44.1957 74.1986 36.9558 74.1986 28.9595C74.1986 12.967 60.8234 0 44.3957 0H8.93192L24.9156 57.9731H44.3957Z" fill="white"/>
<path d="M60.7713 64.3484H0V72.8309H15.9282L29.5809 122.321H60.7713C69.0406 122.321 76.422 119.08 81.8054 113.839C87.1888 108.598 90.5187 101.358 90.5187 93.3619C90.5187 77.3693 77.199 64.3484 60.7713 64.3484Z" fill="white"/>
<path d="M123.651 76.0188C115.437 76.0188 108 79.2606 102.561 84.5014C97.1778 89.7962 93.8479 97.0361 93.8479 105.032C93.8479 121.025 107.223 133.992 123.651 133.992H159.115L143.131 76.0188H123.651Z" fill="white"/>
<path d="M152.072 61.1607L138.419 11.6701H107.229C98.9594 11.6701 91.578 14.9118 86.1946 20.1527C80.8112 25.3935 77.4813 32.6334 77.4813 40.6296C77.4813 56.6222 90.801 69.6432 107.229 69.6432H168V61.1607H152.072Z" fill="white"/>
</svg>
