<svg width="140" height="74" viewBox="0 0 140 74" fill="none" xmlns="http://www.w3.org/2000/svg">
<path d="M26.4712 41.8343L15.4142 30.946L7.52419 35.5889C5.43289 36.8196 4.06406 38.7649 3.50666 40.9346C2.95066 43.1036 3.22094 45.4901 4.4491 47.5772C6.90626 51.7528 12.2761 53.169 16.4306 50.7242L31.8028 41.6784L30.4996 39.4637L26.4712 41.8343Z" fill="white"/>
<path d="M130.32 30.1956L119.263 19.3073L111.373 23.9503C109.282 25.1809 107.913 27.1262 107.356 29.296C106.8 31.4649 107.07 33.8515 108.298 35.9386C110.755 40.1142 116.125 41.5303 120.28 39.0856L135.652 30.0397L134.348 27.8251L130.32 30.1956Z" fill="white"/>
<path d="M91.8245 35.5677L80.7675 24.6794L72.8775 29.3223C70.7862 30.553 69.4173 32.4983 68.8599 34.668C68.3039 36.837 68.5742 39.2235 69.8024 41.3106C72.2595 45.4862 77.6294 46.9024 81.7839 44.4576L97.1561 35.4118L95.8529 33.1971L91.8245 35.5677Z" fill="white"/>
<path d="M63.4194 30.9532L70.7148 17.257L64.0203 11.0125C62.2459 9.3574 59.9917 8.59809 57.753 8.68057C55.5155 8.76415 53.3043 9.70179 51.6525 11.4726C48.3478 15.0155 48.5167 20.5664 52.0417 23.8545L65.0847 36.0205L66.8374 34.1415L63.4194 30.9532Z" fill="white"/>
<path d="M45.269 37.2163L42.9181 21.8773L33.8178 20.8804C31.4057 20.6161 29.1453 21.3567 27.401 22.7625C25.6584 24.1684 24.4478 26.2428 24.1841 28.6501C23.6565 33.4662 27.1136 37.8124 31.9054 38.3373L49.6356 40.2796L49.9154 37.7252L45.269 37.2163Z" fill="white"/>
<path d="M51.3836 55.7106C53.1242 57.8945 55.582 59.169 58.1623 59.478C60.7442 59.7618 63.4205 59.0766 65.597 57.3418C69.9478 53.872 70.6423 47.5028 67.161 43.1351L59.6448 33.7051L47.2547 50.5304L51.3836 55.7106Z" fill="white"/>
<path d="M7.51617 22.0056C9.2568 24.1894 11.7145 25.464 14.2948 25.7729C16.8768 26.0567 19.553 25.3715 21.7295 23.6367C26.0803 20.1669 26.7749 13.7977 23.2936 9.43003L15.7773 0L3.38726 16.8254L7.51617 22.0056Z" fill="white"/>
<path d="M22.6269 54.2009C21.8191 56.8742 22.167 59.6209 23.3792 61.9196C24.6129 64.2054 26.6976 66.0181 29.3619 66.8231C34.6895 68.4313 40.325 65.3833 41.9405 60.0367L45.4285 48.4932L24.5429 47.8597L22.6269 54.2009Z" fill="white"/>
<path d="M88.8567 63.6416C90.318 61.2618 90.6802 58.517 90.0927 55.9855C89.481 53.4611 87.926 51.1777 85.5541 49.7214C80.8109 46.8109 74.5854 48.3251 71.663 53.0848L65.3533 63.3613L85.3906 69.2868L88.8567 63.6416Z" fill="white"/>
<path d="M108.434 40.3599C106.136 38.7731 103.414 38.2641 100.855 38.7149C98.3012 39.1902 95.9376 40.6204 94.3561 42.9107C91.1953 47.4909 92.3732 53.7887 96.9692 56.9623L106.892 63.8145L113.885 44.124L108.434 40.3599Z" fill="white"/>
<path d="M96.7148 7.30149C93.9915 6.6829 91.276 7.22227 89.0678 8.5924C86.874 9.98318 85.2117 12.1897 84.5952 14.9038C83.364 20.3309 86.7991 25.7391 92.2457 26.9763L104.005 29.6475L103.175 8.76883L96.7148 7.30149Z" fill="white"/>
<path d="M134.503 57.7049C135.853 55.2606 136.089 52.5021 135.386 50.0002C134.66 47.5065 133.002 45.2967 130.566 43.9506C125.694 41.2606 119.544 43.0584 116.843 47.9471L111.011 58.502L131.299 63.503L134.503 57.7049Z" fill="white"/>
</svg>
